# xmcd
#
# Track frame offsets:
#	150
#	17428
#	31399
#	47614
#	65525
#	83372
#	100293
#	119556
#	135169
#	150397
#	163075
#	182214
#	197269
#	210592
#
# Disc length: 2995
#
# Revision: 1
# Processed by: cddbd v1.5.1PL0 Copyright (c) Steve Scherf et al.
# Submitted via: CDex 1.50beta9
# Normalized: r0:TDELIM( - )
#
DISCID=a70bb10e
DTITLE=Various Artist - Hot Hits - Country - Vol 111
DYEAR=2001
DGENRE=Country
TTITLE0=Lonestar - With Me
TTITLE1=Brad Paisley - Wrapped Around
TTITLE2=Sara Evans - Saints and Angels
TTITLE3=Confederate Railroad - That's What Brothers Do
TTITLE4=Shannon Brown - Baby I Lied
TTITLE5=Tracy Byrd - Just Let Me Be In Love
TTITLE6=David Ball - Riding With Private Malone
TTITLE7=Brian McComas - Night Disappear With You
TTITLE8=Steve Azar - I Don't Have To Be Me ('til Monday)
TTITLE9=Darryl Worley - Sideways
TTITLE10=Pat Green - Carry On
TTITLE11=Jameson Clark - Don't Play Any Love Songs
TTITLE12=Tracy Lawrence - Life Don't Have To Be So Hard
TTITLE13=Toby Keith - I Wanna Talk About Me
EXTD=YEAR: 2001
EXTT0=
EXTT1=
EXTT2=
EXTT3=
EXTT4=
EXTT5=
EXTT6=
EXTT7=
EXTT8=
EXTT9=
EXTT10=
EXTT11=
EXTT12=
EXTT13=
PLAYORDER=
